<?xml version="1.0" encoding="UTF-8"?>
<!DOCTYPE svg PUBLIC "-//W3C//DTD SVG 1.1//EN" "http://www.w3.org/Graphics/SVG/1.1/DTD/svg11.dtd">
<svg xmlns="http://www.w3.org/2000/svg" version="1.1" width="1199px" height="754px" style="shape-rendering:geometricPrecision; text-rendering:geometricPrecision; image-rendering:optimizeQuality; fill-rule:evenodd; clip-rule:evenodd" xmlns:xlink="http://www.w3.org/1999/xlink">
<g><path style="opacity:0.979" fill="#201d1d" d="M 515.5,58.5 C 534.167,58.5 552.833,58.5 571.5,58.5C 571.333,110.501 571.5,162.501 572,214.5C 588.79,208.403 605.623,202.403 622.5,196.5C 623.5,150.505 623.833,104.505 623.5,58.5C 642.167,58.5 660.833,58.5 679.5,58.5C 679.167,96.1726 679.5,133.839 680.5,171.5C 706.974,154.934 722.141,130.934 726,99.5C 728.025,85.9085 728.858,72.2418 728.5,58.5C 740.833,58.5 753.167,58.5 765.5,58.5C 766.628,92.7405 760.128,125.407 746,156.5C 730.646,183.354 708.812,203.021 680.5,215.5C 679.667,274.831 679.167,334.164 679,393.5C 660.576,394.493 642.076,394.826 623.5,394.5C 623.833,342.496 623.5,290.496 622.5,238.5C 605.612,244.407 588.779,250.407 572,256.5C 571.5,302.499 571.333,348.499 571.5,394.5C 552.924,394.826 534.424,394.493 516,393.5C 515.667,356.5 515.333,319.5 515,282.5C 487.873,300.022 472.539,325.022 469,357.5C 467.716,369.474 466.716,381.474 466,393.5C 454.333,393.833 442.667,394.167 431,394.5C 428.741,360.13 435.074,327.463 450,296.5C 465.62,270.718 487.12,251.385 514.5,238.5C 515.5,178.504 515.833,118.504 515.5,58.5 Z"/></g>
<g><path style="opacity:0.975" fill="#201d1d" d="M 915.5,491.5 C 962.307,490.799 996.141,511.133 1017,552.5C 1033.39,597.755 1024.23,636.922 989.5,670C 952.973,696.762 913.973,700.762 872.5,682C 838.048,662.289 820.048,632.456 818.5,592.5C 822.08,542.486 847.747,509.986 895.5,495C 902.257,493.502 908.923,492.335 915.5,491.5 Z M 918.5,529.5 C 939.479,529.027 957.646,537.027 973,553.5C 987.807,573.953 990.474,595.953 981,619.5C 968.394,642.975 948.727,655.309 922,656.5C 889.192,654.608 868.192,637.941 859,606.5C 853.807,575.724 864.641,552.557 891.5,537C 900.233,533.07 909.233,530.57 918.5,529.5 Z"/></g>
<g><path style="opacity:0.98" fill="#201d1d" d="M 1.5,497.5 C 14.1667,497.5 26.8333,497.5 39.5,497.5C 39.5,521.167 39.5,544.833 39.5,568.5C 71.5,568.5 103.5,568.5 135.5,568.5C 135.5,544.833 135.5,521.167 135.5,497.5C 148.167,497.5 160.833,497.5 173.5,497.5C 173.5,561.5 173.5,625.5 173.5,689.5C 160.833,689.5 148.167,689.5 135.5,689.5C 135.5,662.5 135.5,635.5 135.5,608.5C 103.5,608.5 71.5,608.5 39.5,608.5C 39.5,635.5 39.5,662.5 39.5,689.5C 26.8333,689.5 14.1667,689.5 1.5,689.5C 1.5,625.5 1.5,561.5 1.5,497.5 Z"/></g>
<g><path style="opacity:0.98" fill="#201d1d" d="M 227.5,497.5 C 240.167,497.5 252.833,497.5 265.5,497.5C 265.333,535.835 265.5,574.168 266,612.5C 268.268,643.43 284.934,658.097 316,656.5C 348.972,657.528 365.639,641.528 366,608.5C 366.5,571.502 366.667,534.502 366.5,497.5C 379.167,497.5 391.833,497.5 404.5,497.5C 404.667,537.501 404.5,577.501 404,617.5C 398.646,670.677 369.146,696.343 315.5,694.5C 261.908,695.736 232.742,669.736 228,616.5C 227.5,576.835 227.333,537.168 227.5,497.5 Z"/></g>
<g><path style="opacity:0.974" fill="#201d1d" d="M 453.5,497.5 C 491.168,497.333 528.835,497.5 566.5,498C 607.843,504.212 624.343,527.712 616,568.5C 612.721,576.443 607.888,583.277 601.5,589C 622.32,602.77 629.82,621.937 624,646.5C 619.942,664.89 609.109,677.39 591.5,684C 584.057,686.689 576.391,688.355 568.5,689C 530.262,689.829 492.095,689.663 454,688.5C 453.5,624.834 453.333,561.168 453.5,497.5 Z M 491.5,533.5 C 513.503,533.333 535.503,533.5 557.5,534C 575.348,536.225 581.515,546.058 576,563.5C 574.167,566.667 571.667,569.167 568.5,571C 563.425,572.745 558.259,573.912 553,574.5C 533,574.5 513,574.5 493,574.5C 491.519,560.992 491.019,547.325 491.5,533.5 Z M 492.5,606.5 C 515.589,606.923 538.423,606.923 561,606.5C 567.676,607.059 573.676,609.393 579,613.5C 585.366,623.44 586.033,633.774 581,644.5C 576.931,649.285 571.764,652.119 565.5,653C 540.836,653.5 516.169,653.667 491.5,653.5C 491.183,637.756 491.516,622.089 492.5,606.5 Z"/></g>
<g><path style="opacity:0.977" fill="#201d1d" d="M 678.5,497.5 C 691.167,497.5 703.833,497.5 716.5,497.5C 716.5,548.167 716.5,598.833 716.5,649.5C 746.835,649.333 777.168,649.5 807.5,650C 808.489,663.087 808.823,676.254 808.5,689.5C 765.167,689.5 721.833,689.5 678.5,689.5C 678.5,625.5 678.5,561.5 678.5,497.5 Z"/></g>
<g><path style="opacity:0.967" fill="#201d1d" d="M 1039.5,497.5 C 1091.83,497.5 1144.17,497.5 1196.5,497.5C 1196.5,510.833 1196.5,524.167 1196.5,537.5C 1177.17,537.5 1157.83,537.5 1138.5,537.5C 1138.5,588.167 1138.5,638.833 1138.5,689.5C 1125.5,689.5 1112.5,689.5 1099.5,689.5C 1099.5,638.833 1099.5,588.167 1099.5,537.5C 1079.5,537.5 1059.5,537.5 1039.5,537.5C 1039.5,524.167 1039.5,510.833 1039.5,497.5 Z"/></g>
</svg>
